<svg width="24" height="24" viewBox="0 0 24 24" fill="none" xmlns="http://www.w3.org/2000/svg">
    <g clip-path="url(#clip0_0_1)">
        <path
            d="M10.7302 5.07319C11.1448 5.02485 11.5684 5 11.9999 5C16.6639 5 20.3998 7.90264 21.9999 12C21.6053 13.0104 21.0809 13.9482 20.4446 14.7877M6.51956 6.51944C4.47949 7.76406 2.90105 9.69259 1.99994 12C3.60008 16.0974 7.33597 19 11.9999 19C14.0375 19 15.8979 18.446 17.4805 17.4804M9.87871 9.87859C9.33576 10.4215 8.99994 11.1715 8.99994 12C8.99994 13.6569 10.3431 15 11.9999 15C12.8284 15 13.5785 14.6642 14.1214 14.1212"
            stroke="#808185" stroke-width="1.5" stroke-linecap="round" stroke-linejoin="round" />
    </g>
    <path
        d="M13.2853 18.9366C12.8707 18.9854 12.4472 19.0107 12.0156 19.0112C7.35167 19.0164 3.61252 16.118 2.00779 12.0224C2.40125 11.0116 2.92467 10.0732 3.55997 9.23303M17.4943 17.4856C19.533 16.2387 21.1093 14.3084 22.0078 12C20.403 7.90444 16.6639 5.00599 11.9999 5.01122C9.96238 5.0135 8.10256 5.56958 6.52104 6.53694M14.1314 14.1302C14.6737 13.5867 15.0087 12.8363 15.0078 12.0079C15.0059 10.351 13.6613 9.00936 12.0044 9.01122C11.1759 9.01214 10.4263 9.34881 9.884 9.89237"
        stroke="#808185" stroke-width="1.5" stroke-linecap="round" stroke-linejoin="round" />
    <defs>
        <clipPath id="clip0_0_1">
            <rect width="24" height="24" fill="white" />
        </clipPath>
    </defs>
</svg>
    